<svg xmlns="http://www.w3.org/2000/svg" xmlns:xlink="http://www.w3.org/1999/xlink" width="40" zoomAndPan="magnify" viewBox="0 0 30 30.000001" height="40" preserveAspectRatio="xMidYMid meet" version="1.0"><defs><clipPath id="783cbbb8e4"><path d="M 0.484375 0 L 20 0 L 20 29.03125 L 0.484375 29.03125 Z M 0.484375 0 " clip-rule="nonzero"/></clipPath><clipPath id="b3ff21dce1"><path d="M 21 10 L 29.515625 10 L 29.515625 19 L 21 19 Z M 21 10 " clip-rule="nonzero"/></clipPath></defs><g clip-path="url(#783cbbb8e4)"><path fill="#ffffff" d="M 18.515625 0.214844 C 18.171875 0.0390625 17.753906 0.0703125 17.441406 0.300781 L 6.347656 8.367188 L 1.515625 8.367188 C 0.945312 8.367188 0.484375 8.832031 0.484375 9.402344 L 0.484375 19.734375 C 0.484375 20.304688 0.945312 20.765625 1.515625 20.765625 L 6.347656 20.765625 L 17.441406 28.835938 C 17.621094 28.964844 17.832031 29.03125 18.046875 29.03125 C 18.207031 29.03125 18.367188 28.996094 18.515625 28.917969 C 18.863281 28.742188 19.082031 28.386719 19.082031 28 L 19.082031 1.136719 C 19.082031 0.746094 18.863281 0.390625 18.515625 0.214844 Z M 18.515625 0.214844 " fill-opacity="1" fill-rule="nonzero"/></g><g clip-path="url(#b3ff21dce1)"><path fill="#ffffff" d="M 29.109375 10.738281 C 28.707031 10.335938 28.050781 10.335938 27.648438 10.738281 L 25.28125 13.105469 L 22.910156 10.738281 C 22.507812 10.335938 21.855469 10.335938 21.449219 10.738281 C 21.046875 11.140625 21.046875 11.796875 21.449219 12.199219 L 23.820312 14.566406 L 21.449219 16.9375 C 21.046875 17.339844 21.046875 17.996094 21.449219 18.398438 C 21.652344 18.597656 21.917969 18.699219 22.179688 18.699219 C 22.445312 18.699219 22.710938 18.597656 22.910156 18.398438 L 25.28125 16.027344 L 27.648438 18.398438 C 27.851562 18.597656 28.117188 18.699219 28.378906 18.699219 C 28.644531 18.699219 28.910156 18.597656 29.109375 18.398438 C 29.515625 17.996094 29.515625 17.339844 29.109375 16.9375 L 26.742188 14.566406 L 29.109375 12.199219 C 29.515625 11.796875 29.515625 11.140625 29.109375 10.738281 Z M 29.109375 10.738281 " fill-opacity="1" fill-rule="nonzero"/></g></svg>