<svg xmlns="http://www.w3.org/2000/svg" xmlns:xlink="http://www.w3.org/1999/xlink" width="40" zoomAndPan="magnify" viewBox="0 0 30 30.000001" height="40" preserveAspectRatio="xMidYMid meet" version="1.0"><defs><clipPath id="a5710c6f80"><path d="M 0.484375 0 L 29.515625 0 L 29.515625 29.03125 L 0.484375 29.03125 Z M 0.484375 0 " clip-rule="nonzero"/></clipPath></defs><g clip-path="url(#a5710c6f80)"><path stroke-linecap="round" transform="matrix(0.00658268, 0, 0, 0.00658268, -15.09602, -15.579889)" fill="none" stroke-linejoin="round" d="M 6688.704708 4571.923002 C 6688.704708 4710.781683 6675.649618 4848.453538 6648.352613 4984.938566 C 6621.055607 5121.423595 6581.296925 5253.754731 6527.88974 5381.931976 C 6474.482554 5510.702633 6409.207106 5632.352332 6332.063394 5748.0679 C 6254.919682 5863.783468 6167.094534 5970.597838 6069.181361 6069.104424 C 5970.674775 6167.017597 5863.860405 6254.842745 5748.144837 6331.986457 C 5632.429269 6409.723582 5510.77957 6474.405618 5382.008913 6527.812803 C 5253.831668 6581.219988 5121.500532 6620.97867 4985.015503 6648.275676 C 4848.530475 6675.572681 4710.85862 6689.221184 4571.999939 6689.221184 C 4433.141257 6689.221184 4295.469402 6675.572681 4158.984374 6648.275676 C 4022.499345 6620.97867 3890.168209 6581.219988 3761.990965 6527.812803 C 3633.220307 6474.405618 3511.570608 6409.723582 3395.85504 6331.986457 C 3280.139472 6254.842745 3173.325102 6167.017597 3074.818516 6069.104424 C 2976.905344 5970.597838 2889.080195 5863.783468 2811.936483 5748.0679 C 2734.792771 5632.352332 2669.517323 5510.702633 2616.110138 5381.931976 C 2562.702953 5253.754731 2522.94427 5121.423595 2495.647265 4984.938566 C 2468.350259 4848.453538 2455.295169 4710.781683 2455.295169 4571.923002 C 2455.295169 4433.06432 2468.350259 4295.392465 2495.647265 4158.907437 C 2522.94427 4022.422408 2562.702953 3890.091272 2616.110138 3761.914028 C 2669.517323 3633.14337 2734.792771 3511.493671 2811.936483 3395.778103 C 2889.080195 3280.062535 2976.905344 3173.248165 3074.818516 3075.334993 C 3173.325102 2976.828407 3280.139472 2889.003258 3395.85504 2811.859546 C 3511.570608 2734.715834 3633.220307 2669.440386 3761.990965 2616.033201 C 3890.168209 2563.219429 4022.499345 2522.867333 4158.984374 2495.570328 C 4295.469402 2468.273322 4433.141257 2455.218232 4571.999939 2455.218232 C 4710.85862 2455.218232 4848.530475 2468.273322 4985.015503 2495.570328 C 5121.500532 2522.867333 5253.831668 2563.219429 5382.008913 2616.033201 C 5510.77957 2669.440386 5632.429269 2734.715834 5748.144837 2811.859546 C 5863.860405 2889.003258 5970.674775 2976.828407 6069.181361 3075.334993 C 6167.094534 3173.248165 6254.919682 3280.062535 6332.063394 3395.778103 C 6409.207106 3511.493671 6474.482554 3633.14337 6527.88974 3761.914028 C 6581.296925 3890.091272 6621.055607 4022.422408 6648.352613 4158.907437 C 6675.649618 4295.392465 6688.704708 4433.06432 6688.704708 4571.923002 Z M 6688.704708 4571.923002 " stroke="#ffffff" stroke-width="176.38" stroke-opacity="1" stroke-miterlimit="4"/></g><path stroke-linecap="round" transform="matrix(0.00658268, 0, 0, 0.00658268, -15.09602, -15.579889)" fill="none" stroke-linejoin="round" d="M 3999.949645 5523.757723 L 5482.295738 4571.923002 L 3999.949645 3618.901454 Z M 3999.949645 5523.757723 " stroke="#ffffff" stroke-width="176.38" stroke-opacity="1" stroke-miterlimit="4"/></svg>