<svg xmlns="http://www.w3.org/2000/svg" xmlns:xlink="http://www.w3.org/1999/xlink" width="40" zoomAndPan="magnify" viewBox="0 0 30 30.000001" height="40" preserveAspectRatio="xMidYMid meet" version="1.0"><defs><clipPath id="80b0a7ebb6"><path d="M 0.484375 0 L 19 0 L 19 29.03125 L 0.484375 29.03125 Z M 0.484375 0 " clip-rule="nonzero"/></clipPath><clipPath id="4e951b787c"><path d="M 24 6 L 29.515625 6 L 29.515625 23 L 24 23 Z M 24 6 " clip-rule="nonzero"/></clipPath></defs><g clip-path="url(#80b0a7ebb6)"><path fill="#ffffff" d="M 17.722656 0.207031 C 17.363281 0.0351562 16.9375 0.0820312 16.628906 0.328125 L 6.546875 8.367188 L 1.773438 8.367188 C 1.203125 8.367188 0.742188 8.832031 0.742188 9.402344 L 0.742188 19.734375 C 0.742188 20.304688 1.203125 20.765625 1.773438 20.765625 L 6.546875 20.765625 L 16.628906 28.808594 C 16.816406 28.957031 17.042969 29.03125 17.273438 29.03125 C 17.425781 29.03125 17.578125 29 17.722656 28.929688 C 18.078125 28.757812 18.304688 28.394531 18.304688 28 L 18.304688 1.136719 C 18.304688 0.738281 18.078125 0.378906 17.722656 0.207031 Z M 17.722656 0.207031 " fill-opacity="1" fill-rule="nonzero"/></g><path fill="#ffffff" d="M 19.640625 9.703125 C 19.238281 10.109375 19.238281 10.761719 19.640625 11.164062 C 21.261719 12.789062 21.261719 16.347656 19.640625 17.96875 C 19.238281 18.375 19.238281 19.027344 19.640625 19.429688 C 19.84375 19.632812 20.109375 19.734375 20.371094 19.734375 C 20.636719 19.734375 20.902344 19.632812 21.101562 19.429688 C 23.511719 17.023438 23.511719 12.113281 21.101562 9.703125 C 20.699219 9.300781 20.046875 9.300781 19.640625 9.703125 Z M 19.640625 9.703125 " fill-opacity="1" fill-rule="nonzero"/><g clip-path="url(#4e951b787c)"><path fill="#ffffff" d="M 26.300781 6.636719 C 25.914062 6.21875 25.261719 6.1875 24.839844 6.574219 C 24.421875 6.957031 24.390625 7.613281 24.777344 8.03125 C 26.226562 9.621094 27.117188 12.113281 27.152344 14.703125 C 27.191406 17.351562 26.347656 19.660156 24.839844 21.039062 C 24.421875 21.421875 24.390625 22.074219 24.777344 22.496094 C 24.980469 22.71875 25.257812 22.832031 25.539062 22.832031 C 25.789062 22.832031 26.035156 22.742188 26.234375 22.5625 C 28.179688 20.785156 29.265625 17.910156 29.21875 14.671875 C 29.175781 11.589844 28.085938 8.589844 26.300781 6.636719 Z M 26.300781 6.636719 " fill-opacity="1" fill-rule="nonzero"/></g></svg>