<svg xmlns="http://www.w3.org/2000/svg" xmlns:xlink="http://www.w3.org/1999/xlink" width="40" zoomAndPan="magnify" viewBox="0 0 30 30.000001" height="40" preserveAspectRatio="xMidYMid meet" version="1.0"><defs><clipPath id="269d8e2e90"><path d="M 0.484375 0 L 29.515625 0 L 29.515625 29.03125 L 0.484375 29.03125 Z M 0.484375 0 " clip-rule="nonzero"/></clipPath></defs><g clip-path="url(#269d8e2e90)"><path fill="#ffffff" d="M 14.988281 29.015625 C 6.984375 29.015625 0.476562 22.507812 0.476562 14.503906 C 0.476562 6.5 6.984375 -0.0078125 14.988281 -0.0078125 C 22.988281 -0.0078125 29.5 6.5 29.5 14.503906 C 29.5 22.507812 22.988281 29.015625 14.988281 29.015625 Z M 14.988281 1.421875 C 7.773438 1.421875 1.90625 7.292969 1.90625 14.503906 C 1.90625 21.71875 7.773438 27.585938 14.988281 27.585938 C 22.199219 27.585938 28.070312 21.71875 28.070312 14.503906 C 28.070312 7.292969 22.199219 1.421875 14.988281 1.421875 Z M 14.988281 1.421875 " fill-opacity="1" fill-rule="nonzero"/></g><path fill="#ffffff" d="M 13.554688 18.601562 C 13.554688 19.472656 12.84375 20.183594 11.972656 20.183594 C 11.097656 20.183594 10.390625 19.472656 10.390625 18.601562 L 10.390625 10.40625 C 10.390625 9.535156 11.097656 8.824219 11.972656 8.824219 C 12.84375 8.824219 13.554688 9.535156 13.554688 10.40625 Z M 13.554688 18.601562 " fill-opacity="1" fill-rule="nonzero"/><path fill="#ffffff" d="M 19.492188 18.601562 C 19.492188 19.472656 18.78125 20.183594 17.910156 20.183594 C 17.035156 20.183594 16.328125 19.472656 16.328125 18.601562 L 16.328125 10.40625 C 16.328125 9.535156 17.035156 8.824219 17.910156 8.824219 C 18.78125 8.824219 19.492188 9.535156 19.492188 10.40625 Z M 19.492188 18.601562 " fill-opacity="1" fill-rule="nonzero"/></svg>